<mxfile host="app.diagrams.net" modified="2024-05-19T15:30:09.294Z" agent="Mozilla/5.0 (Windows NT 10.0; Win64; x64) AppleWebKit/537.36 (KHTML, like Gecko) Chrome/125.0.0.0 Safari/537.36" etag="ZnZOEzuKmPMoCl0LWFOB" version="24.4.4" type="github">
  <diagram id="C5RBs43oDa-KdzZeNtuy" name="Page-1">
    <mxGraphModel dx="2577" dy="2039" grid="1" gridSize="10" guides="1" tooltips="1" connect="1" arrows="1" fold="1" page="1" pageScale="1" pageWidth="827" pageHeight="1169" math="0" shadow="0">
      <root>
        <mxCell id="WIyWlLk6GJQsqaUBKTNV-0" />
        <mxCell id="WIyWlLk6GJQsqaUBKTNV-1" parent="WIyWlLk6GJQsqaUBKTNV-0" />
        <mxCell id="nk5cHRSvYMLwgmSLHAou-32" value="" style="shape=process;whiteSpace=wrap;html=1;backgroundOutline=1;size=0.12371134020618534;" vertex="1" parent="WIyWlLk6GJQsqaUBKTNV-1">
          <mxGeometry x="-670" y="-10" width="970" height="1180" as="geometry" />
        </mxCell>
        <mxCell id="nk5cHRSvYMLwgmSLHAou-4" value="" style="edgeStyle=orthogonalEdgeStyle;rounded=0;orthogonalLoop=1;jettySize=auto;html=1;" edge="1" parent="WIyWlLk6GJQsqaUBKTNV-1" source="WIyWlLk6GJQsqaUBKTNV-3" target="nk5cHRSvYMLwgmSLHAou-3">
          <mxGeometry relative="1" as="geometry" />
        </mxCell>
        <mxCell id="WIyWlLk6GJQsqaUBKTNV-3" value="Valida dados do body" style="rounded=1;whiteSpace=wrap;html=1;fontSize=12;glass=0;strokeWidth=1;shadow=0;" parent="WIyWlLk6GJQsqaUBKTNV-1" vertex="1">
          <mxGeometry x="-410" y="80" width="120" height="40" as="geometry" />
        </mxCell>
        <mxCell id="nk5cHRSvYMLwgmSLHAou-1" style="edgeStyle=orthogonalEdgeStyle;rounded=0;orthogonalLoop=1;jettySize=auto;html=1;entryX=0;entryY=0.5;entryDx=0;entryDy=0;" edge="1" parent="WIyWlLk6GJQsqaUBKTNV-1" source="nk5cHRSvYMLwgmSLHAou-0" target="WIyWlLk6GJQsqaUBKTNV-3">
          <mxGeometry relative="1" as="geometry">
            <mxPoint x="-240" y="100" as="targetPoint" />
          </mxGeometry>
        </mxCell>
        <mxCell id="nk5cHRSvYMLwgmSLHAou-0" value="Início" style="strokeWidth=2;html=1;shape=mxgraph.flowchart.start_2;whiteSpace=wrap;" vertex="1" parent="WIyWlLk6GJQsqaUBKTNV-1">
          <mxGeometry x="-660" y="50" width="100" height="100" as="geometry" />
        </mxCell>
        <mxCell id="nk5cHRSvYMLwgmSLHAou-6" value="" style="edgeStyle=orthogonalEdgeStyle;rounded=0;orthogonalLoop=1;jettySize=auto;html=1;" edge="1" parent="WIyWlLk6GJQsqaUBKTNV-1" source="nk5cHRSvYMLwgmSLHAou-3" target="nk5cHRSvYMLwgmSLHAou-5">
          <mxGeometry relative="1" as="geometry" />
        </mxCell>
        <mxCell id="nk5cHRSvYMLwgmSLHAou-3" value="Converte input para a entidade" style="whiteSpace=wrap;html=1;rounded=1;glass=0;strokeWidth=1;shadow=0;" vertex="1" parent="WIyWlLk6GJQsqaUBKTNV-1">
          <mxGeometry x="-210" y="70" width="120" height="60" as="geometry" />
        </mxCell>
        <mxCell id="nk5cHRSvYMLwgmSLHAou-8" value="" style="edgeStyle=orthogonalEdgeStyle;rounded=0;orthogonalLoop=1;jettySize=auto;html=1;" edge="1" parent="WIyWlLk6GJQsqaUBKTNV-1" source="nk5cHRSvYMLwgmSLHAou-5" target="nk5cHRSvYMLwgmSLHAou-7">
          <mxGeometry relative="1" as="geometry" />
        </mxCell>
        <mxCell id="nk5cHRSvYMLwgmSLHAou-5" value="Salva a transação e suas parcelas e se houver parcelas, são criadas e salvas" style="whiteSpace=wrap;html=1;rounded=1;glass=0;strokeWidth=1;shadow=0;" vertex="1" parent="WIyWlLk6GJQsqaUBKTNV-1">
          <mxGeometry x="-210" y="210" width="120" height="60" as="geometry" />
        </mxCell>
        <mxCell id="nk5cHRSvYMLwgmSLHAou-10" value="" style="edgeStyle=orthogonalEdgeStyle;rounded=0;orthogonalLoop=1;jettySize=auto;html=1;" edge="1" parent="WIyWlLk6GJQsqaUBKTNV-1" source="nk5cHRSvYMLwgmSLHAou-7" target="nk5cHRSvYMLwgmSLHAou-9">
          <mxGeometry relative="1" as="geometry" />
        </mxCell>
        <mxCell id="nk5cHRSvYMLwgmSLHAou-11" value="Sim" style="edgeLabel;html=1;align=center;verticalAlign=middle;resizable=0;points=[];" vertex="1" connectable="0" parent="nk5cHRSvYMLwgmSLHAou-10">
          <mxGeometry x="-0.5556" relative="1" as="geometry">
            <mxPoint as="offset" />
          </mxGeometry>
        </mxCell>
        <mxCell id="nk5cHRSvYMLwgmSLHAou-16" style="edgeStyle=orthogonalEdgeStyle;rounded=0;orthogonalLoop=1;jettySize=auto;html=1;entryX=0;entryY=0.5;entryDx=0;entryDy=0;" edge="1" parent="WIyWlLk6GJQsqaUBKTNV-1" source="nk5cHRSvYMLwgmSLHAou-7" target="nk5cHRSvYMLwgmSLHAou-14">
          <mxGeometry relative="1" as="geometry" />
        </mxCell>
        <mxCell id="nk5cHRSvYMLwgmSLHAou-22" value="Não" style="edgeLabel;html=1;align=center;verticalAlign=middle;resizable=0;points=[];" vertex="1" connectable="0" parent="nk5cHRSvYMLwgmSLHAou-16">
          <mxGeometry x="-0.3913" y="-4" relative="1" as="geometry">
            <mxPoint as="offset" />
          </mxGeometry>
        </mxCell>
        <mxCell id="nk5cHRSvYMLwgmSLHAou-7" value="Transação recorrente?" style="rhombus;whiteSpace=wrap;html=1;rounded=1;glass=0;strokeWidth=1;shadow=0;" vertex="1" parent="WIyWlLk6GJQsqaUBKTNV-1">
          <mxGeometry x="-190" y="340" width="80" height="80" as="geometry" />
        </mxCell>
        <mxCell id="nk5cHRSvYMLwgmSLHAou-15" value="" style="edgeStyle=orthogonalEdgeStyle;rounded=0;orthogonalLoop=1;jettySize=auto;html=1;" edge="1" parent="WIyWlLk6GJQsqaUBKTNV-1" source="nk5cHRSvYMLwgmSLHAou-9" target="nk5cHRSvYMLwgmSLHAou-14">
          <mxGeometry relative="1" as="geometry" />
        </mxCell>
        <mxCell id="nk5cHRSvYMLwgmSLHAou-9" value="Envia para o tópico&amp;nbsp;&lt;div&gt;TRANSACAO_MENSAL_A_SALVAR&lt;/div&gt;" style="whiteSpace=wrap;html=1;rounded=1;glass=0;strokeWidth=1;shadow=0;" vertex="1" parent="WIyWlLk6GJQsqaUBKTNV-1">
          <mxGeometry x="-210" y="510" width="250" height="60" as="geometry" />
        </mxCell>
        <mxCell id="nk5cHRSvYMLwgmSLHAou-18" value="" style="edgeStyle=orthogonalEdgeStyle;rounded=0;orthogonalLoop=1;jettySize=auto;html=1;" edge="1" parent="WIyWlLk6GJQsqaUBKTNV-1" source="nk5cHRSvYMLwgmSLHAou-14" target="nk5cHRSvYMLwgmSLHAou-17">
          <mxGeometry relative="1" as="geometry" />
        </mxCell>
        <mxCell id="nk5cHRSvYMLwgmSLHAou-19" value="Sim" style="edgeLabel;html=1;align=center;verticalAlign=middle;resizable=0;points=[];" vertex="1" connectable="0" parent="nk5cHRSvYMLwgmSLHAou-18">
          <mxGeometry x="-0.3333" relative="1" as="geometry">
            <mxPoint as="offset" />
          </mxGeometry>
        </mxCell>
        <mxCell id="nk5cHRSvYMLwgmSLHAou-23" style="edgeStyle=orthogonalEdgeStyle;rounded=0;orthogonalLoop=1;jettySize=auto;html=1;" edge="1" parent="WIyWlLk6GJQsqaUBKTNV-1" source="nk5cHRSvYMLwgmSLHAou-14" target="nk5cHRSvYMLwgmSLHAou-20">
          <mxGeometry relative="1" as="geometry" />
        </mxCell>
        <mxCell id="nk5cHRSvYMLwgmSLHAou-24" value="Não" style="edgeLabel;html=1;align=center;verticalAlign=middle;resizable=0;points=[];" vertex="1" connectable="0" parent="nk5cHRSvYMLwgmSLHAou-23">
          <mxGeometry x="-0.4114" y="3" relative="1" as="geometry">
            <mxPoint as="offset" />
          </mxGeometry>
        </mxCell>
        <mxCell id="nk5cHRSvYMLwgmSLHAou-14" value="Está associada a budget?" style="rhombus;whiteSpace=wrap;html=1;rounded=1;glass=0;strokeWidth=1;shadow=0;" vertex="1" parent="WIyWlLk6GJQsqaUBKTNV-1">
          <mxGeometry x="-430" y="660" width="80" height="80" as="geometry" />
        </mxCell>
        <mxCell id="nk5cHRSvYMLwgmSLHAou-21" value="" style="edgeStyle=orthogonalEdgeStyle;rounded=0;orthogonalLoop=1;jettySize=auto;html=1;" edge="1" parent="WIyWlLk6GJQsqaUBKTNV-1" source="nk5cHRSvYMLwgmSLHAou-17" target="nk5cHRSvYMLwgmSLHAou-20">
          <mxGeometry relative="1" as="geometry" />
        </mxCell>
        <mxCell id="nk5cHRSvYMLwgmSLHAou-17" value="Salva a associação da transação com o budget" style="whiteSpace=wrap;html=1;rounded=1;glass=0;strokeWidth=1;shadow=0;" vertex="1" parent="WIyWlLk6GJQsqaUBKTNV-1">
          <mxGeometry x="-450" y="830" width="120" height="60" as="geometry" />
        </mxCell>
        <mxCell id="nk5cHRSvYMLwgmSLHAou-26" value="" style="edgeStyle=orthogonalEdgeStyle;rounded=0;orthogonalLoop=1;jettySize=auto;html=1;" edge="1" parent="WIyWlLk6GJQsqaUBKTNV-1" source="nk5cHRSvYMLwgmSLHAou-20" target="nk5cHRSvYMLwgmSLHAou-25">
          <mxGeometry relative="1" as="geometry" />
        </mxCell>
        <mxCell id="nk5cHRSvYMLwgmSLHAou-28" value="" style="edgeStyle=orthogonalEdgeStyle;rounded=0;orthogonalLoop=1;jettySize=auto;html=1;" edge="1" parent="WIyWlLk6GJQsqaUBKTNV-1" source="nk5cHRSvYMLwgmSLHAou-20" target="nk5cHRSvYMLwgmSLHAou-27">
          <mxGeometry relative="1" as="geometry" />
        </mxCell>
        <mxCell id="nk5cHRSvYMLwgmSLHAou-29" value="Não" style="edgeLabel;html=1;align=center;verticalAlign=middle;resizable=0;points=[];" vertex="1" connectable="0" parent="nk5cHRSvYMLwgmSLHAou-28">
          <mxGeometry x="-0.5406" y="-4" relative="1" as="geometry">
            <mxPoint as="offset" />
          </mxGeometry>
        </mxCell>
        <mxCell id="nk5cHRSvYMLwgmSLHAou-20" value="Está associada a MoneyBox?&lt;div&gt;&lt;br&gt;&lt;/div&gt;" style="rhombus;whiteSpace=wrap;html=1;rounded=1;glass=0;strokeWidth=1;shadow=0;" vertex="1" parent="WIyWlLk6GJQsqaUBKTNV-1">
          <mxGeometry x="-230" y="820" width="80" height="80" as="geometry" />
        </mxCell>
        <mxCell id="nk5cHRSvYMLwgmSLHAou-30" style="edgeStyle=orthogonalEdgeStyle;rounded=0;orthogonalLoop=1;jettySize=auto;html=1;" edge="1" parent="WIyWlLk6GJQsqaUBKTNV-1" source="nk5cHRSvYMLwgmSLHAou-25">
          <mxGeometry relative="1" as="geometry">
            <mxPoint x="240" y="910" as="targetPoint" />
          </mxGeometry>
        </mxCell>
        <mxCell id="nk5cHRSvYMLwgmSLHAou-25" value="Salva associação do MoneyBox" style="whiteSpace=wrap;html=1;rounded=1;glass=0;strokeWidth=1;shadow=0;" vertex="1" parent="WIyWlLk6GJQsqaUBKTNV-1">
          <mxGeometry x="-250" y="990" width="120" height="60" as="geometry" />
        </mxCell>
        <mxCell id="nk5cHRSvYMLwgmSLHAou-27" value="Fim" style="ellipse;whiteSpace=wrap;html=1;rounded=1;glass=0;strokeWidth=1;shadow=0;" vertex="1" parent="WIyWlLk6GJQsqaUBKTNV-1">
          <mxGeometry x="200" y="820" width="80" height="80" as="geometry" />
        </mxCell>
      </root>
    </mxGraphModel>
  </diagram>
</mxfile>
